<svg id="Layer_1_copy" height="512" viewBox="0 0 64 64" width="512" xmlns="http://www.w3.org/2000/svg" data-name="Layer 1 copy"><path d="m29 43h6v6h-6z" fill="#1f7c99"/><path d="m29 34h6v3h-6z" fill="#1f7c99"/><rect fill="#5ed3f7" height="26" rx="6" width="46" x="9" y="8"/><path d="m14 13h36v16h-36z" fill="#ef790f"/><path d="m24 37h16v6h-16z" fill="#279ecc"/><path d="m37.88 49h-11.75a6 6 0 0 0 -6 6v2a6 6 0 0 0 6 6h11.75a6 6 0 0 0 6-6v-2a6 6 0 0 0 -6-6zm2.63 7.54a3.16 3.16 0 0 1 -3.09 3.21h-10.58a3.16 3.16 0 0 1 -3.09-3.21v-1.08a3.16 3.16 0 0 1 3.09-3.21h10.57a3.16 3.16 0 0 1 3.09 3.21z" fill="#1f7c99"/><g opacity=".5"><circle cx="24" cy="20.5" fill="#f9cdac" r="4"/></g><g opacity=".5"><circle cx="40" cy="20.5" fill="#f9cdac" r="4"/></g><g opacity=".2"><path d="m14 25s9.88-9.37 21-7 15-.89 15-.89v-4.11h-36z" fill="#fcfcfc"/></g><g fill="#072451"><path d="m49 35a7 7 0 0 0 7-7 1 1 0 0 0 -2 0 5 5 0 0 1 -5 5h-34a5 5 0 0 1 -5-5v-14a5 5 0 0 1 5-5h17.75a1 1 0 0 0 0-2h-17.75a7 7 0 0 0 -7 7v14a7 7 0 0 0 7 7h13v1h-4a1 1 0 0 0 -1 1v6a1 1 0 0 0 1 1h4v4h-1.87a7 7 0 0 0 -7 7v2a7 7 0 0 0 7 7h11.75a7 7 0 0 0 7-7v-2a7 7 0 0 0 -7-7h-1.88v-4h4a1 1 0 0 0 1-1v-6a1 1 0 0 0 -1-1h-4v-1zm-6.12 20v2a5 5 0 0 1 -5 5h-11.75a5 5 0 0 1 -5-5v-2a5 5 0 0 1 5-5h11.75a5 5 0 0 1 5 5zm-8.88-7h-4v-4h4zm5-6h-14v-4h14zm-5-6h-4v-1h4z"/><path d="m49 7h-10.75a1 1 0 0 0 0 2h10.75a5 5 0 0 1 5 5v9.5a1 1 0 0 0 2 0v-9.5a7 7 0 0 0 -7-7z"/><path d="m31.75 14a1 1 0 0 0 0-2h-17.75a1 1 0 0 0 -1 1v16a1 1 0 0 0 1 1h7a1 1 0 0 0 0-2h-6v-14z"/><path d="m25.25 29a1 1 0 0 0 1 1h23.75a1 1 0 0 0 1-1v-16a1 1 0 0 0 -1-1h-13.75a1 1 0 0 0 0 2h12.75v14h-22.75a1 1 0 0 0 -1 1z"/><path d="m22.75 55.46v1.07a4.16 4.16 0 0 0 4.09 4.21h10.57a4.16 4.16 0 0 0 4.09-4.21v-1.07a4.16 4.16 0 0 0 -4.09-4.21h-10.57a4.16 4.16 0 0 0 -4.09 4.21zm16.75 0v1.07a2.16 2.16 0 0 1 -2.09 2.21h-10.57a2.16 2.16 0 0 1 -2.09-2.21v-1.07a2.16 2.16 0 0 1 2.09-2.21h10.57a2.16 2.16 0 0 1 2.09 2.21z"/><path d="m29 20.5a5 5 0 1 0 -5 5 5 5 0 0 0 5-5zm-8 0a3 3 0 1 1 3 3 3 3 0 0 1 -3-3z"/><path d="m45 20.5a5 5 0 1 0 -5 5 5 5 0 0 0 5-5zm-8 0a3 3 0 1 1 3 3 3 3 0 0 1 -3-3z"/><path d="m33 3.75v-1.75a1 1 0 0 0 -2 0v1.75a1 1 0 0 0 2 0z"/><path d="m23 4v-1.75a1 1 0 0 0 -2 0v1.75a1 1 0 0 0 2 0z"/><path d="m4 15h-1.75a1 1 0 0 0 0 2h1.75a1 1 0 0 0 0-2z"/><path d="m4 23h-1.75a1 1 0 0 0 0 2h1.75a1 1 0 0 0 0-2z"/><path d="m61.75 15h-1.75a1 1 0 0 0 0 2h1.75a1 1 0 0 0 0-2z"/><path d="m61.75 23h-1.75a1 1 0 0 0 0 2h1.75a1 1 0 0 0 0-2z"/><path d="m43 4v-1.75a1 1 0 0 0 -2 0v1.75a1 1 0 0 0 2 0z"/><path d="m54.21 5.44 1.24-1.24a1 1 0 0 0 -1.45-1.41l-1.21 1.21a1 1 0 1 0 1.41 1.41z"/><path d="m8 5.44a1 1 0 0 0 1.46-1.44l-1.24-1.21a1 1 0 0 0 -1.41 1.42z"/><path d="m6.81 39.44a1 1 0 0 0 1.41 0l1.24-1.24a1 1 0 0 0 -1.46-1.41l-1.19 1.21a1 1 0 0 0 0 1.44z"/><path d="m54 39.44a1 1 0 0 0 1.44-1.44l-1.24-1.24a1 1 0 0 0 -1.41 1.41z"/></g></svg>